<?xml version="1.0" standalone="no"?><!DOCTYPE svg PUBLIC "-//W3C//DTD SVG 1.1//EN" "http://www.w3.org/Graphics/SVG/1.1/DTD/svg11.dtd"><svg t="1759963879573" class="icon" viewBox="0 0 1024 1024" version="1.1" xmlns="http://www.w3.org/2000/svg" p-id="9663" xmlns:xlink="http://www.w3.org/1999/xlink" width="200" height="200"><path d="M256.274 240.941h81.505L493.526 466.09 650.08 240.94h81.505L533.068 518.732 746.918 819.2h-81.505L493.526 571.375 322.446 819.2h-81.505l212.236-300.468z" fill="#8a8a8a" p-id="9664"></path><path d="M836.837 680.996c19.95 0 36.43 5.783 49.441 17.348 12.722 11.565 19.083 26.31 19.083 44.815 0 17.926-6.94 34.117-20.24 48.863-8.095 8.674-22.552 19.66-42.79 33.25-21.107 13.878-33.829 26.021-38.455 36.43H905.65v29.78H761.663c0-21.106 6.65-39.321 20.528-54.934 7.518-8.674 23.42-21.396 47.418-37.876l14.054-10.39c6.092-4.83 10.81-9.098 14.28-12.74 8.963-10.12 13.59-21.107 13.59-32.672 0-11.276-3.181-19.661-8.964-25.154-6.071-5.494-15.034-8.096-26.889-8.096-12.721 0-22.263 4.337-28.623 13.01-6.361 8.096-9.83 20.529-10.41 36.72H762.82c0.289-23.13 6.939-41.634 20.239-55.802 13.589-15.034 31.515-22.552 53.778-22.552z" fill="#8a8a8a" p-id="9665"></path></svg>