<?xml version="1.0" standalone="no"?><!DOCTYPE svg PUBLIC "-//W3C//DTD SVG 1.1//EN" "http://www.w3.org/Graphics/SVG/1.1/DTD/svg11.dtd"><svg t="1759962788481" class="icon" viewBox="0 0 1024 1024" version="1.1" xmlns="http://www.w3.org/2000/svg" p-id="5058" xmlns:xlink="http://www.w3.org/1999/xlink" width="200" height="200"><path d="M256.558 240.941h83.014L498.203 470.26l159.454-229.318h83.014L538.478 523.876l217.81 306.032h-83.015l-175.07-252.414-174.247 252.414H240.94l216.166-306.032z" fill="#636A74" p-id="5059"></path><path d="M832.853 240.941c20.32 0 37.105 5.89 50.357 17.67 12.957 11.779 19.436 26.797 19.436 45.644 0 18.258-7.068 34.75-20.614 49.768-8.245 8.834-22.97 20.025-43.583 33.866-21.498 14.135-34.455 26.503-39.167 37.104H902.94v30.332H756.288c0-21.497 6.773-40.05 20.908-55.952 7.656-8.834 23.853-21.791 48.295-38.577l14.315-10.583c6.205-4.919 11.01-9.265 14.545-12.976 9.129-10.307 13.84-21.497 13.84-33.276 0-11.485-3.239-20.025-9.129-25.62-6.184-5.596-15.313-8.246-27.387-8.246-12.957 0-22.675 4.417-29.153 13.252-6.48 8.245-10.013 20.908-10.602 37.4h-34.454c0.294-23.56 7.067-42.406 20.613-56.836 13.841-15.313 32.1-22.97 54.774-22.97z" fill="#016FD2" p-id="5060"></path></svg>