<?xml version="1.0" standalone="no"?><!DOCTYPE svg PUBLIC "-//W3C//DTD SVG 1.1//EN" "http://www.w3.org/Graphics/SVG/1.1/DTD/svg11.dtd"><svg class="icon" width="200px" height="175.04px" viewBox="0 0 1170 1024" version="1.1" xmlns="http://www.w3.org/2000/svg"><path fill="#000000" d="M1144.876703 504.481774l-279.739458-253.118501a40.15084 40.15084 0 0 0-59.458348 5.631356 47.976231 47.976231 0 0 0 5.19255 64.065821l250.485658 226.716947-251.436407 227.521426a47.537424 47.537424 0 0 0-5.119415 63.480745 39.712033 39.712033 0 0 0 58.873272 5.485087l291.587247-263.796137a47.537424 47.537424 0 0 0 5.119415-63.480745 42.052337 42.052337 0 0 0-15.431379-12.505999zM108.926526 547.777397l250.485659-226.716947a47.976231 47.976231 0 0 0 5.192549-64.065821 40.15084 40.15084 0 0 0-59.458347-5.631356L25.333794 504.481774a44.685179 44.685179 0 0 0-24.86573 34.812021 46.952348 46.952348 0 0 0 14.6269 41.101588l291.587247 263.942407a39.712033 39.712033 0 0 0 58.873272-5.558222 47.537424 47.537424 0 0 0-5.19255-63.480745L108.853392 547.631128zM667.089022 0.804479a44.904582 44.904582 0 0 1 33.934407 52.218033L548.611133 984.975431a44.53891 44.53891 0 0 1-26.620957 36.128443 39.492629 39.492629 0 0 1-42.125471-8.044795 47.171752 47.171752 0 0 1-13.529883-43.880699L618.893387 37.298594a42.198606 42.198606 0 0 1 48.415038-36.567249z"  /></svg>