<?xml version="1.0" standalone="no"?><!DOCTYPE svg PUBLIC "-//W3C//DTD SVG 1.1//EN" "http://www.w3.org/Graphics/SVG/1.1/DTD/svg11.dtd"><svg class="icon" width="200px" height="200.00px" viewBox="0 0 1024 1024" version="1.1" xmlns="http://www.w3.org/2000/svg"><path fill="#000000" d="M202.666667 170.666667a32 32 0 0 0-64 0v682.666666a32 32 0 0 0 64 0v-309.333333h320V853.333333a32 32 0 0 0 64 0V170.666667a32 32 0 0 0-64 0v309.333333h-320V170.666667zM842.666667 343.381333v307.285334H853.333333a32 32 0 0 1 0 64h-10.666666V853.333333a32 32 0 0 1-64 0v-138.666666h-104.277334a40.533333 40.533333 0 0 1-37.12-56.746667l143.274667-327.552c14.08-32.170667 62.122667-22.101333 62.122667 13.013333z m-132.394667 307.285334h68.394667v-156.373334l-68.394667 156.373334z" /></svg>