<?xml version="1.0" standalone="no"?><!DOCTYPE svg PUBLIC "-//W3C//DTD SVG 1.1//EN" "http://www.w3.org/Graphics/SVG/1.1/DTD/svg11.dtd"><svg class="icon" width="200px" height="200.00px" viewBox="0 0 1024 1024" version="1.1" xmlns="http://www.w3.org/2000/svg"><path fill="#000000" d="M571.193 139c17.496 0 31.713 14.042 31.995 31.47l0.005 0.53v683c0 17.673-14.327 32-32 32-17.497 0-31.713-14.042-31.996-31.47l-0.004-0.53V544.5H197.672V854c0 17.673-14.327 32-32 32-17.497 0-31.714-14.042-31.996-31.47l-0.004-0.53V171c0-17.673 14.326-32 32-32 17.496 0 31.713 14.042 31.995 31.47l0.005 0.53v309.5h341.52V171c0-17.673 14.328-32 32-32zM901.99 405.275l0.01 0.86V854c0 17.673-14.327 32-32 32-17.496 0-31.713-14.042-31.996-31.47L838 854V485.797l-46.785 48.84c-12.103 12.634-32.077 13.187-44.859 1.334l-0.385-0.363c-12.635-12.103-13.187-32.078-1.334-44.86l0.362-0.384 101.893-106.365c19.752-20.619 54.406-6.984 55.098 21.276z" /></svg>