<?xml version="1.0" standalone="no"?><!DOCTYPE svg PUBLIC "-//W3C//DTD SVG 1.1//EN" "http://www.w3.org/Graphics/SVG/1.1/DTD/svg11.dtd"><svg class="icon" width="200px" height="200.00px" viewBox="0 0 1024 1024" version="1.1" xmlns="http://www.w3.org/2000/svg"><path fill="#000000" d="M170.666667 128H85.333333v768h85.333334V554.666667h341.333333v341.333333h85.333333V128h-85.333333v341.333333H170.666667V128z m554.666666 426.666667c0-30.976 30.144-64 64-64 39.68 0 64 27.989333 64 53.333333 0 10.410667-4.309333 23.317333-13.376 38.613333-8.64 14.570667-19.349333 27.626667-29.226666 39.68l-0.96 1.194667L640 827.221333V896h298.666667v-85.333333h-173.802667l110.72-132.842667 0.106667-0.128 1.792-2.197333c9.429333-11.498667 23.808-29.056 35.84-49.322667C926.08 604.757333 938.666667 576.256 938.666667 544c0-80.704-71.189333-138.666667-149.333334-138.666667-83.968 0-149.333333 74.261333-149.333333 149.333334h85.333333z"  /></svg>