<?xml version="1.0" standalone="no"?><!DOCTYPE svg PUBLIC "-//W3C//DTD SVG 1.1//EN" "http://www.w3.org/Graphics/SVG/1.1/DTD/svg11.dtd"><svg class="icon" width="200px" height="200.00px" viewBox="0 0 1024 1024" version="1.1" xmlns="http://www.w3.org/2000/svg"><path fill="#000000" d="M170.666667 128H85.333333v768h85.333334V554.666667h341.333333v341.333333h85.333333V128h-85.333333v341.333333H170.666667V128z m606.826666 256a137.472 137.472 0 0 0-137.472 137.472h85.333334A52.138667 52.138667 0 0 1 777.493333 469.333333h11.861334a64 64 0 0 1 0 128h-42.666667v85.333334h42.666667a64 64 0 0 1 0 128h-11.861334a52.138667 52.138667 0 0 1-52.138666-52.138667h-85.333334A137.472 137.472 0 0 0 777.493333 896h11.861334A149.333333 149.333333 0 0 0 893.866667 640 149.333333 149.333333 0 0 0 789.333333 384h-11.861333z" /></svg>