<?xml version="1.0" standalone="no"?><!DOCTYPE svg PUBLIC "-//W3C//DTD SVG 1.1//EN" "http://www.w3.org/Graphics/SVG/1.1/DTD/svg11.dtd"><svg class="icon" width="200px" height="200.00px" viewBox="0 0 1024 1024" version="1.1" xmlns="http://www.w3.org/2000/svg"><path d="M0 0h1024v1024H0z" fill="#D8D8D8" fill-opacity="0" /><path d="M700.224 511.936V512H928v64h-162.048c16 26.496 24.064 59.072 24.064 97.6 0 63.808-25.088 116.864-75.264 159.104-50.176 42.24-115.584 63.296-196.224 63.296-103.36 0-180.608-23.488-231.808-70.4-47.488-43.584-74.112-98.688-79.808-165.312l-0.896-15.552h93.44l1.664 13.568c7.296 48.512 29.504 84.992 66.624 109.248 40.512 26.56 89.408 39.808 146.752 39.808 54.336 0 98.112-11.328 131.2-33.92 33.28-22.656 49.792-53.376 49.792-92.224 0-40.896-17.152-70.592-51.52-89.152a298.496 298.496 0 0 0-35.84-16L96 576V512h281.6L700.16 512zM491.968 128c82.688 0 149.376 19.392 200 58.24 47.104 36.096 73.6 85.952 79.552 149.76l0.96 14.912h-94.464l-1.472-11.008c-13.376-82.56-73.536-123.776-180.544-123.776-54.016 0-95.808 10.304-125.44 30.912-29.696 20.608-44.544 48-44.544 82.048 0 31.104 11.904 54.4 35.712 69.952 23.872 15.552 68.352 30.528 133.504 45.056 5.888 1.28 11.712 2.624 17.344 3.968H272.32c-27.2-30.144-40.832-68.288-40.832-114.368 0-60.16 23.744-109.44 71.232-147.968C350.272 147.264 413.312 128 491.968 128z" fill="#000000" fill-opacity=".65" /></svg>