<?xml version="1.0" standalone="no"?><!DOCTYPE svg PUBLIC "-//W3C//DTD SVG 1.1//EN" "http://www.w3.org/Graphics/SVG/1.1/DTD/svg11.dtd"><svg class="icon" width="200px" height="200.00px" viewBox="0 0 1024 1024" version="1.1" xmlns="http://www.w3.org/2000/svg"><path fill="#000000" d="M318.6 174.9V859.6h212.6c49 0 95.2-19.2 130.1-54.1s54.1-81.1 54.1-130.1-19.2-95.2-54.1-130.1c-23.9-23.9-53.1-40.4-84.9-48.5 5.5-4.4 10.8-9.1 15.9-14.1 34.2-34.2 53-79.4 53-127.4s-18.8-93.3-53-127.4c-34.2-34.2-79.4-53-127.4-53H318.6z m46 46h100.2c74.1 0 134.4 60.3 134.4 134.4 0 74.1-60.3 134.4-134.4 134.4H364.6V220.9z m166.6 592.8H364.6V537.3h166.6c76.2 0 138.2 62 138.2 138.2 0 76.2-62 138.2-138.2 138.2z" /></svg>