<?xml version="1.0" standalone="no"?><!DOCTYPE svg PUBLIC "-//W3C//DTD SVG 1.1//EN" "http://www.w3.org/Graphics/SVG/1.1/DTD/svg11.dtd"><svg class="icon" width="200px" height="200.00px" viewBox="0 0 1024 1024" version="1.1" xmlns="http://www.w3.org/2000/svg"><path fill="#000000" d="M698.368 204.8c0-12.288 8.192-20.48 20.48-20.48s20.48 8.192 20.48 20.48v276.48c0 131.072-104.448 235.52-235.52 235.52s-235.52-106.496-235.52-235.52V204.8c0-12.288 8.192-20.48 20.48-20.48s20.48 8.192 20.48 20.48v276.48c0 108.544 88.064 194.56 194.56 194.56s194.56-88.064 194.56-194.56V204.8z m-401.408 634.88c-12.288 0-20.48-8.192-20.48-20.48s8.192-20.48 20.48-20.48h409.6c12.288 0 20.48 8.192 20.48 20.48s-8.192 20.48-20.48 20.48h-409.6z"  /></svg>